<?xml version="1.0" encoding="UTF-8" standalone="no"?>
<!-- Created with Inkscape (http://www.inkscape.org/) -->

<svg
   width="512"
   height="512"
   viewBox="0 0 512 512"
   version="1.1"
   id="svg1"
   inkscape:version="1.3 (0e150ed6c4, 2023-07-21)"
   sodipodi:docname="YinYang.svg"
   xmlns:inkscape="http://www.inkscape.org/namespaces/inkscape"
   xmlns:sodipodi="http://sodipodi.sourceforge.net/DTD/sodipodi-0.dtd"
   xmlns="http://www.w3.org/2000/svg"
   xmlns:svg="http://www.w3.org/2000/svg">
  <sodipodi:namedview
     id="namedview1"
     pagecolor="#ffffff"
     bordercolor="#000000"
     borderopacity="0.25"
     inkscape:showpageshadow="2"
     inkscape:pageopacity="0.0"
     inkscape:pagecheckerboard="0"
     inkscape:deskcolor="#d1d1d1"
     inkscape:document-units="px"
     showguides="true"
     inkscape:zoom="2.2207031"
     inkscape:cx="265.90677"
     inkscape:cy="222.67722"
     inkscape:window-width="1811"
     inkscape:window-height="1481"
     inkscape:window-x="630"
     inkscape:window-y="1164"
     inkscape:window-maximized="0"
     inkscape:current-layer="layer1">
    <sodipodi:guide
       position="-20.263852,527.76077"
       orientation="1,0"
       id="guide6"
       inkscape:locked="false" />
  </sodipodi:namedview>
  <defs
     id="defs1" />
  <g
     inkscape:label="Layer 1"
     inkscape:groupmode="layer"
     id="layer1">
    <path
       id="path5"
       style="stroke-width:2.75545"
       d="m 256.30431,0.69920817 c -12.17149,5.758e-5 -24.32763,0.86950923 -36.37523,2.60169503 -12.04812,1.7318137 -23.95734,4.3220574 -35.63637,7.7508828 -11.67895,3.429632 -23.09811,7.689189 -34.17008,12.746021 -11.07171,5.05668 -21.76827,10.897838 -32.00768,17.478711 -10.24051,6.580386 -19.998021,13.883973 -29.197745,21.854806 -9.19822,7.970381 -17.8155,16.587661 -25.785881,25.785881 -7.970833,9.199724 -15.27442,18.957235 -21.854806,29.197745 -6.580873,10.23941 -12.422031,20.93597 -17.478711,32.00768 -5.056832,11.07197 -9.316389,22.49113 -12.746021,34.17008 -3.4288254,11.67903 -6.0190691,23.58825 -7.7508828,35.63637 -1.7321858,12.0476 -2.60163745,24.20374 -2.60169503,36.37523 5.758e-5,12.17149 0.86950923,24.32763 2.60169503,36.37523 1.7318137,12.04812 4.3220574,23.95734 7.7508828,35.63637 3.429632,11.67894 7.689189,23.09811 12.746021,34.17008 5.05668,11.07171 10.897838,21.76827 17.478711,32.00768 6.580386,10.24051 13.883973,19.99802 21.854806,29.19774 7.970381,9.19822 16.587661,17.81551 25.785881,25.78588 9.199724,7.97084 18.957235,15.27443 29.197745,21.85481 10.23941,6.58089 20.93597,12.42203 32.00768,17.47872 11.07197,5.05682 22.49113,9.31638 34.17008,12.74602 11.67903,3.42883 23.58825,6.01905 35.63637,7.75088 12.0476,1.73218 24.20374,2.60163 36.37523,2.60169 12.17149,-6e-5 24.32763,-0.86951 36.37523,-2.60169 12.04812,-1.73183 23.95734,-4.32205 35.63637,-7.75088 11.67894,-3.42964 23.09811,-7.6892 34.17008,-12.74602 11.07171,-5.05669 21.76827,-10.89783 32.00768,-17.47872 10.24051,-6.58038 19.99802,-13.88397 29.19774,-21.85481 9.19822,-7.97037 17.81551,-16.58766 25.78588,-25.78588 7.97084,-9.19972 15.27443,-18.95723 21.85481,-29.19774 6.58089,-10.23941 12.42203,-20.93597 17.47872,-32.00768 5.05682,-11.07197 9.31638,-22.49114 12.74602,-34.17008 3.42883,-11.67903 6.01905,-23.58825 7.75088,-35.63637 1.73218,-12.0476 2.60163,-24.20374 2.60169,-36.37523 -9e-5,-4.18208 -0.10282,-8.36359 -0.3081,-12.54063 -0.20471,-4.17758 -0.51195,-8.3496 -0.92143,-12.51208 -0.41058,-4.16267 -0.92328,-8.31471 -1.53762,-12.4522 -0.61385,-4.13722 -1.32915,-8.25879 -2.14526,-12.3609 -0.81544,-4.1022 -1.73145,-8.18385 -2.74718,-12.24109 -1.01631,-4.05768 -2.13208,-8.08984 -3.34627,-12.09275 -1.21462,-4.00165 -2.52728,-7.97293 -3.93677,-11.91018 -1.40836,-3.9379 -2.91315,-7.8407 -4.51302,-11.70477 -1.60134,-3.86464 -3.29736,-7.68944 -5.08643,-11.47086 -1.78799,-3.78071 -3.66853,-7.51706 -5.63986,-11.20553 -1.97193,-3.68919 -4.03414,-7.32945 -6.18473,-10.91742 -2.14952,-3.58697 -4.38675,-7.1207 -6.70963,-10.59791 -2.32435,-3.47809 -4.73376,-6.89862 -7.22598,-10.25844 -2.49091,-3.35941 -5.06391,-6.657259 -7.71666,-9.89043 -2.65379,-3.233112 -5.38665,-6.40063 -8.1959,-9.499614 -2.80839,-3.098942 -5.69245,-6.128535 -8.6495,-9.085959 -2.95742,-2.957044 -5.98701,-5.841103 -9.08596,-8.649502 -3.09898,-2.809246 -6.2665,-5.542102 -9.49961,-8.195897 -3.23317,-2.652742 -6.53101,-5.225751 -9.89043,-7.716659 -3.35982,-2.492222 -6.78036,-4.901629 -10.25844,-7.225971 -3.47721,-2.322895 -7.01094,-4.560126 -10.59791,-6.709637 -3.58797,-2.150591 -7.22823,-4.21281 -10.91742,-6.184732 -3.68847,-1.971332 -7.42482,-3.851869 -11.20553,-5.639858 -3.78142,-1.789076 -7.60622,-3.485082 -11.47086,-5.086427 -3.86407,-1.599862 -7.76687,-3.104675 -11.70478,-4.513027 -3.93724,-1.409485 -7.90852,-2.722152 -11.91017,-3.936775 C 326.50105,10.490867 322.46889,9.3751 318.41121,8.3588038 314.35397,7.3430657 310.27233,6.4270544 306.17012,5.6116186 302.06802,4.7955138 297.94644,4.0802052 293.80922,3.4663615 289.67173,2.8520139 285.51969,2.3393122 281.35702,1.9287377 277.19454,1.51927 273.02252,1.2120298 268.84493,1.0073042 264.6679,0.80203015 260.48639,0.69929893 256.30431,0.69920817 Z m 0,36.51501483 c 3.95607,3.36e-4 7.91145,0.107792 11.86167,0.322355 3.95043,0.213612 7.89438,0.534199 11.82745,0.961381 3.93244,0.428175 7.85263,0.962785 11.75612,1.603229 3.90394,0.640166 7.78988,1.385964 11.65342,2.236544 3.863,0.849661 7.70231,1.803783 11.51365,2.861302 3.81154,1.058438 7.5938,2.219938 11.34247,3.483182 3.74958,1.263711 7.4643,2.628789 11.13993,4.093683 3.67411,1.463697 7.30795,3.026628 10.89745,4.687039 3.59099,1.660951 7.13636,3.4189 10.63215,5.271862 3.49532,1.852875 6.93988,3.800132 10.32974,5.83954 3.38906,2.039422 6.72232,4.170263 9.99599,6.390127 3.2741,2.220434 6.48748,4.529162 9.63655,6.923597 3.1494,2.394114 6.2334,4.873119 9.24856,7.434224 3.01504,2.561397 5.96016,5.204018 8.83208,7.924897 2.87183,2.720368 5.66953,5.518065 8.38989,8.389895 2.72089,2.87192 5.36351,5.81704 7.9249,8.83208 2.5611,3.01516 5.04011,6.09916 7.43422,9.24856 2.39444,3.14907 4.70317,6.36245 6.9236,9.63655 2.21987,3.27367 4.35071,6.60693 6.39013,9.99599 2.03941,3.38986 3.98666,6.83442 5.83954,10.32974 1.85296,3.49579 3.61091,7.04116 5.27187,10.63215 1.6604,3.5895 3.22333,7.22334 4.68703,10.89745 1.46489,3.67563 2.82997,7.39035 4.09369,11.13993 1.26324,3.74867 2.42474,7.53093 3.48318,11.34247 1.05751,3.81133 2.01164,7.65065 2.86129,11.51365 0.85058,3.86354 1.59639,7.74948 2.23655,11.65342 0.64044,3.90349 1.17506,7.82367 1.60323,11.75612 0.42718,3.93307 0.74776,7.87702 0.96139,11.82745 0.21451,3.95022 0.32201,7.9056 0.32235,11.86167 -4.7e-4,11.47724 -0.90282,22.93689 -2.69869,34.27276 -1.79506,11.3367 -4.47825,22.51492 -8.02475,33.43122 -3.54697,10.91469 -7.94616,21.53397 -13.15682,31.7595 -5.20981,10.22688 -11.2153,20.02873 -17.96081,29.31471 -6.7465,9.28552 -14.21234,18.02666 -22.32836,26.14247 -8.11581,8.11602 -16.85695,15.58186 -26.14247,22.32836 -9.28598,6.74551 -19.08783,12.751 -29.31471,17.96081 -10.22553,5.21066 -20.84481,9.60985 -31.7595,13.15682 -10.9163,3.5465 -22.09452,6.22969 -33.43122,8.02475 -8.81419,1.39639 -17.71066,2.08712 -26.62458,2.39914 5.62709,-0.39407 11.22161,-1.19057 16.72844,-2.44764 7.99657,-1.82528 15.76288,-4.54292 23.15281,-8.10176 7.39036,-3.55904 14.35766,-7.93692 20.77077,-13.05127 6.41261,-5.11397 12.23066,-10.93201 17.34462,-17.34463 5.11436,-6.41311 9.49223,-13.3804 13.05127,-20.77077 3.55885,-7.38993 6.27649,-15.15624 8.10177,-23.15281 1.8255,-7.99702 2.74701,-16.17388 2.74718,-24.37662 3.8e-4,-2.73197 -0.10151,-5.463 -0.30523,-8.18735 -0.20463,-2.72345 -0.51105,-5.43833 -0.91859,-8.13884 -0.40722,-2.70153 -0.91536,-5.38691 -1.52336,-8.05043 -0.60761,-2.66333 -1.31463,-5.30301 -2.11958,-7.91349 -0.80478,-2.60977 -1.70687,-5.18856 -2.70439,-7.73091 -0.9986,-2.54279 -2.09197,-5.04736 -3.2778,-7.50841 -1.18536,-2.46123 -2.46237,-4.87731 -3.82837,-7.24308 -1.36509,-2.36516 -2.81816,-4.67846 -4.35613,-6.93502 -1.53945,-2.25747 -3.16285,-4.45658 -4.86677,-6.59266 -1.70299,-2.13603 -3.48532,-4.20763 -5.34316,-6.2104 -1.85749,-2.00185 -3.78921,-3.93358 -5.79107,-5.79107 -2.00277,-1.85783 -4.07437,-3.64016 -6.21039,-5.34316 -2.13609,-1.70392 -4.3352,-3.32731 -6.59267,-4.86677 -2.25655,-1.53796 -4.56986,-2.99103 -6.935,-4.35613 -2.36578,-1.36599 -4.78187,-2.64301 -7.2431,-3.82837 -2.46105,-1.18582 -4.96562,-2.2792 -7.50841,-3.2778 -2.54234,-0.99751 -5.12114,-1.8996 -7.73091,-2.70439 -2.61048,-0.80495 -5.25016,-1.51196 -7.91349,-2.11958 -2.66352,-0.608 -5.3489,-1.11614 -8.05042,-1.52336 -2.70052,-0.40753 -5.4154,-0.71396 -8.13885,-0.91859 -2.72435,-0.20379 -5.45538,-0.30561 -8.18735,-0.30523 -8.20272,-1.8e-4 -16.37961,-0.92169 -24.37662,-2.74718 -7.99656,-1.82527 -15.76289,-4.54294 -23.15281,-8.10177 -7.39035,-3.55903 -14.35768,-7.93693 -20.77077,-13.05127 -6.4126,-5.11396 -12.23067,-10.93202 -17.34462,-17.34463 -5.11434,-6.41308 -9.49225,-13.38042 -13.05127,-20.77076 -3.55883,-7.38992 -6.2765,-15.15626 -8.10177,-23.15281 -1.8255,-7.99701 -2.74701,-16.17391 -2.74718,-24.37662 1.7e-4,-8.20272 0.92168,-16.37961 2.74718,-24.37662 1.82527,-7.99656 4.54294,-15.76289 8.10177,-23.152816 3.55902,-7.390347 7.93693,-14.357675 13.05127,-20.770763 5.11395,-6.412606 10.93202,-12.230674 17.34462,-17.344632 6.41309,-5.114336 13.38042,-9.492239 20.77077,-13.05127 7.38992,-3.558826 15.15625,-6.276493 23.15281,-8.101761 5.50683,-1.257066 11.10136,-2.053575 16.72844,-2.447645 2.5502,-0.08924 5.09505,-0.299438 7.64818,-0.29954 z m 0,73.030027 a 36.515014,36.515014 0 0 0 -13.9727,2.77856 36.515014,36.515014 0 0 0 -11.84741,7.91635 36.515014,36.515014 0 0 0 -7.91635,11.8474 36.515014,36.515014 0 0 0 -2.77855,13.97271 36.515014,36.515014 0 0 0 2.77855,13.9727 36.515014,36.515014 0 0 0 7.91635,11.8474 36.515014,36.515014 0 0 0 11.84741,7.91635 36.515014,36.515014 0 0 0 13.9727,2.77856 36.515014,36.515014 0 0 0 13.9727,-2.77856 36.515014,36.515014 0 0 0 11.84741,-7.91635 36.515014,36.515014 0 0 0 7.91635,-11.8474 36.515014,36.515014 0 0 0 2.77855,-13.9727 36.515014,36.515014 0 0 0 -0.31379,-4.76692 36.515014,36.515014 0 0 0 -0.93,-4.68419 36.515014,36.515014 0 0 0 -1.53476,-4.5216 36.515014,36.515014 0 0 0 -2.11389,-4.28481 36.515014,36.515014 0 0 0 -2.65305,-3.971 36.515014,36.515014 0 0 0 -3.14941,-3.59159 36.515014,36.515014 0 0 0 -3.5916,-3.14941 36.515014,36.515014 0 0 0 -3.971,-2.65306 36.515014,36.515014 0 0 0 -4.28481,-2.11388 36.515014,36.515014 0 0 0 -4.52159,-1.53477 36.515014,36.515014 0 0 0 -4.68419,-0.93 36.515014,36.515014 0 0 0 -4.76692,-0.31379 z m 0,219.09009 c 1.59411,4.4e-4 3.18651,0.10531 4.76692,0.3138 1.58002,0.20746 3.14475,0.51811 4.68419,0.92999 1.53907,0.4124 3.0495,0.92508 4.52159,1.53477 1.47289,0.61032 2.90421,1.31647 4.28481,2.11388 1.38013,0.79675 2.70665,1.68299 3.971,2.65305 1.26465,0.97026 2.46445,2.02234 3.5916,3.14942 1.12707,1.12715 2.17915,2.32694 3.14941,3.59159 0.97006,1.26435 1.85631,2.59087 2.65305,3.97101 0.79741,1.38059 1.50356,2.81192 2.11389,4.2848 0.60968,1.47209 1.12236,2.98253 1.53476,4.5216 0.41188,1.53943 0.72253,3.10417 0.93,4.68419 0.20853,1.58041 0.31335,3.1728 0.31379,4.76691 1.8e-4,4.79482 -0.94399,9.54275 -2.77855,13.97271 -1.83519,4.43064 -4.52519,8.45645 -7.91635,11.8474 -3.39095,3.39116 -7.41677,6.08116 -11.84741,7.91635 -4.42996,1.83456 -9.17788,2.77873 -13.9727,2.77856 -4.79482,1.7e-4 -9.54275,-0.944 -13.9727,-2.77856 -4.43065,-1.83519 -8.45646,-4.52519 -11.84741,-7.91635 -3.39116,-3.39095 -6.08116,-7.41676 -7.91635,-11.8474 -1.83456,-4.42996 -2.77873,-9.17789 -2.77855,-13.97271 -1.8e-4,-4.79482 0.94399,-9.54274 2.77855,-13.9727 1.83519,-4.43064 4.52519,-8.45646 7.91635,-11.8474 3.39095,-3.39116 7.41676,-6.08117 11.84741,-7.91635 4.42995,-1.83456 9.17788,-2.77874 13.9727,-2.77856 z" />
  </g>
</svg>
